<?xml version="1.0" encoding="UTF-8"?>
<svg id="Ebene_2" data-name="Ebene 2" xmlns="http://www.w3.org/2000/svg" viewBox="0 0 815.94 556.81">
  <defs>
    <style>
      .cls-1 {
        fill: #88cc27;
      }
    </style>
  </defs>
  <g id="Ebene_1-2" data-name="Ebene 1">
    <g>
      <g>
        <path class="cls-1" d="M514.14,39.63C493.09,17.91,463.86,3.42,431.06.54h-155.16c13.08,13.06,26.15,26.13,39.23,39.21,37.84.45,75.66.9,113.49,1.35,43.93,1.04,79.22,36.98,79.22,81.16s-34.75,79.59-78.23,81.15c-4.55,15.53-9.48,29.17-14.84,41.04,1.38.04,2.78.07,4.17.07,71.35,0,129.18-54.72,129.18-122.26,0-31.87-12.87-60.88-33.98-82.63Z"/>
        <path class="cls-1" d="M418.94,0c-4.08,0-8.14.18-12.11.54h24.23c-3.98-.36-8.03-.54-12.12-.54Z"/>
        <path class="cls-1" d="M424.94,148.38c-3.16,9.08-9.58,21.98-14.05,38.67-12.37,46.17-25.66,67.8-35.41,79.16-25.51,29.71-61.51,39.9-71.45,42.73-9.19,2.6-17.15,3.93-22.94,4.68,15.59-7.9,48.1-27.05,72.38-65.5,17.24-27.29,23.41-53.37,25.9-69.46-2.35-.15-4.62-.22-6.81-.22-12.07,0-21.75,2.2-29.08,4.79-1.23.43-2.38.87-3.49,1.32-1.09.45-2.12.9-3.08,1.33-19.81,9.07-27.59,27.33-38.02,49.52-7.69,16.35-17.71,42.5-21.78,77.41-1.3-53.55-11.45-99.34,23.1-136.89,10.59-11.51,37.99-25.72,64.42-27.53,1.36-.09,2.9-.16,4.59-.22.84-.03,1.72-.04,2.65-.07.91-.03,1.86-.04,2.83-.06,3.89-.07,8.2-.09,12.58-.09,3.76,0,7.54.01,11.16.03,11.18.03,20.36.24,26.5.42Z"/>
        <g>
          <path class="cls-1" d="M183.85,538.27h22.66c.28,0,.5.22.5.5v4.61c0,.28-.22.5-.5.5h-22.66c-.28,0-.5.22-.5.5v6.32c0,.28.22.5.5.5h25.26c.28,0,.5.22.5.5v4.61c0,.28-.22.5-.5.5h-30.87c-.28,0-.5-.22-.5-.5v-30.42c0-.28.22-.5.5-.5h30.87c.28,0,.5.22.5.5v4.61c0,.28-.22.5-.5.5h-25.26c-.28,0-.5.22-.5.5v6.27c0,.28.22.5.5.5Z"/>
          <path class="cls-1" d="M252.25,556.31v-30.42c0-.28.22-.5.5-.5h3.96c.13,0,.26.05.36.15l21.04,21.42c.31.32.85.1.85-.35v-20.72c0-.28.22-.5.5-.5h4.61c.28,0,.5.22.5.5v30.42c0,.28-.22.5-.5.5h-3.96c-.13,0-.26-.05-.36-.15l-21.04-21.42c-.31-.32-.85-.1-.85.35v20.72c0,.28-.22.5-.5.5h-4.61c-.28,0-.5-.22-.5-.5Z"/>
          <path class="cls-1" d="M333.98,538.27h22.66c.28,0,.5.22.5.5v4.61c0,.28-.22.5-.5.5h-22.66c-.28,0-.5.22-.5.5v6.32c0,.28.22.5.5.5h25.26c.28,0,.5.22.5.5v4.61c0,.28-.22.5-.5.5h-30.87c-.28,0-.5-.22-.5-.5v-30.42c0-.28.22-.5.5-.5h30.87c.28,0,.5.22.5.5v4.61c0,.28-.22.5-.5.5h-25.26c-.28,0-.5.22-.5.5v6.27c0,.28.22.5.5.5Z"/>
          <path class="cls-1" d="M402.16,556.31v-30.42c0-.28.22-.5.5-.5h21.81c1.5,0,2.89.28,4.2.83,1.3.55,2.43,1.32,3.39,2.29.96.97,1.71,2.1,2.27,3.39.55,1.29.81,2.65.79,4.08-.03,2.36-.73,4.41-2.11,6.13s-3.19,2.89-5.43,3.52v.04l10.04,10.28c.31.32.08.85-.36.85h-6.51c-.14,0-.26-.05-.36-.15l-9.62-9.97c-.09-.1-.22-.15-.36-.15h-12.13c-.28,0-.5.22-.5.5v9.28c0,.28-.22.5-.5.5h-4.61c-.28,0-.5-.22-.5-.5ZM407.77,540.42c0,.28.22.5.5.5h16.2c.72,0,1.38-.13,2-.4.61-.27,1.14-.63,1.59-1.08.45-.45.8-.97,1.05-1.57s.38-1.23.38-1.89-.13-1.29-.38-1.88-.6-1.13-1.03-1.59c-.43-.46-.96-.83-1.57-1.1-.62-.27-1.28-.4-2-.4h-16.24c-.28,0-.5.22-.5.5v8.92Z"/>
          <path class="cls-1" d="M490.89,530.55c-1.41,0-2.74.27-4,.81-1.26.54-2.36,1.28-3.3,2.22-.94.94-1.69,2.04-2.24,3.3-.55,1.26-.83,2.6-.83,4.04s.28,2.79.83,4.06c.55,1.27,1.31,2.37,2.27,3.3,1.03,1,2.23,1.77,3.6,2.32,1.22.49,2.53.69,3.84.69h5.8c1.11,0,2.16-.16,3.14-.49.99-.33,1.88-.8,2.69-1.41.81-.61,1.5-1.35,2.06-2.22.45-.69.81-1.45,1.08-2.28.1-.32-.15-.64-.48-.64h-11.67c-.28,0-.5-.22-.5-.5v-4.57c0-.28.22-.5.5-.5h18.25c.26,0,.48.2.5.46.04.45.06.89.07,1.34.01.6.02,1.2.02,1.8-.09,2.06-.58,3.98-1.46,5.75-.88,1.77-2.04,3.3-3.46,4.6-1.42,1.3-3.06,2.33-4.92,3.07s-3.8,1.12-5.83,1.12h-5.97c-2.18,0-4.24-.42-6.17-1.26-1.93-.84-3.61-1.97-5.05-3.41-1.44-1.44-2.57-3.12-3.41-5.05-.84-1.93-1.26-3.99-1.26-6.17s.42-4.24,1.26-6.17c.84-1.93,1.97-3.61,3.41-5.05,1.44-1.44,3.12-2.57,5.05-3.41s3.99-1.26,6.17-1.26h5.97c2.57,0,4.91.51,7,1.53,1.94.94,3.63,2.22,5.09,3.83.19.21.16.54-.06.72l-3.49,2.87c-.21.17-.5.14-.68-.06-.98-1.08-2.15-1.89-3.5-2.45-1.5-.61-2.96-.92-4.4-.92h-5.92Z"/>
          <path class="cls-1" d="M555.21,525.39h4.57c.28,0,.5.22.5.5v30.42c0,.28-.22.5-.5.5h-4.57c-.28,0-.5-.22-.5-.5v-30.42c0-.28.22-.5.5-.5Z"/>
          <path class="cls-1" d="M610.15,538.27h22.66c.28,0,.5.22.5.5v4.61c0,.28-.22.5-.5.5h-22.66c-.28,0-.5.22-.5.5v6.32c0,.28.22.5.5.5h25.26c.28,0,.5.22.5.5v4.61c0,.28-.22.5-.5.5h-30.87c-.28,0-.5-.22-.5-.5v-30.42c0-.28.22-.5.5-.5h30.87c.28,0,.5.22.5.5v4.61c0,.28-.22.5-.5.5h-25.26c-.28,0-.5.22-.5.5v6.27c0,.28.22.5.5.5Z"/>
        </g>
      </g>
      <rect class="cls-1" y="537.54" width="140" height="5.41" rx=".5" ry=".5"/>
      <rect class="cls-1" x="675.93" y="537.54" width="140" height="5.41" rx=".5" ry=".5"/>
      <g>
        <path d="M124.78,383.17c-2.01-4.69-4.79-8.86-8.25-12.4-3.45-3.51-7.55-6.32-12.2-8.33-4.61-1.99-9.64-3.01-14.92-3.01H4.5c-.28,0-.5.22-.5.5v117.12c0,.37.3.68.68.68h13.09c.37,0,.68-.3.68-.68v-39.97c0-.37.3-.68.68-.68h70.47c5.16,0,10.09-1.01,14.64-3,4.61-2.02,8.73-4.81,12.26-8.29,3.5-3.47,6.29-7.57,8.29-12.19,1.99-4.58,3-9.54,3-14.74s-1.01-10.37-3-15.02ZM111.37,407.41c-1.27,2.83-3,5.36-5.13,7.5-2.15,2.16-4.69,3.88-7.54,5.09-2.88,1.23-6.01,1.86-9.29,1.86H19.11c-.37,0-.68-.3-.68-.68v-46.52c0-.37.3-.68.68-.68h70.29c3.31,0,6.46.66,9.36,1.98,2.83,1.27,5.34,3.01,7.48,5.15,2.13,2.15,3.86,4.71,5.13,7.62,1.3,2.97,1.95,6.15,1.95,9.45s-.66,6.31-1.96,9.22Z"/>
        <path d="M287.79,439.77l-.94-.96c-.12-.13-.19-.3-.19-.47v-4.05c0-.3.2-.57.49-.65l2.43-.68c8.22-2.31,14.66-6.5,19.68-12.8,4.98-6.26,7.45-13.52,7.56-22.19.11-5.2-.84-10.17-2.82-14.79-2.01-4.69-4.78-8.86-8.24-12.4-3.45-3.51-7.58-6.31-12.27-8.32-4.69-2-9.8-3.02-15.22-3.02h-84.55c-.37,0-.68.3-.68.68v116.95c0,.37.3.68.68.68h13.1c.37,0,.68-.3.68-.68v-39.97c0-.37.3-.68.68-.68h56.09c.18,0,.36.08.49.21l.98,1.02,38.29,39.88c.13.13.3.21.49.21h18.56c.6,0,.9-.72.48-1.15l-35.75-36.81ZM207.49,421.18v-46.52c0-.37.3-.68.68-.68h70.28c3.42,0,6.65.66,9.61,1.96,2.94,1.3,5.49,3.1,7.59,5.35,2.05,2.21,3.7,4.76,4.89,7.58,1.22,2.9,1.84,5.97,1.84,9.13s-.62,6.24-1.84,9.14c-1.22,2.87-2.92,5.42-5.07,7.58-2.14,2.14-4.69,3.88-7.59,5.16-2.96,1.31-6.19,1.97-9.61,1.97h-70.1c-.37,0-.68-.3-.68-.68Z"/>
        <g>
          <path d="M392.33,360.73v116.32c0,.37.3.68.68.68h12.91c.37,0,.68-.3.68-.68v-116.32c0-.37-.3-.68-.68-.68h-12.91c-.37,0-.68.3-.68.68Z"/>
          <path d="M604.9,360.06c-.22,0-.42.1-.55.28l-52.46,72.4-2.69,3.72c-.27.37-.82.37-1.09,0l-2.69-3.72-52.47-72.4c-.13-.18-.33-.28-.55-.28h-12.15c-.37,0-.68.3-.68.68v116.32c0,.37.3.68.68.68h13.1c.37,0,.68-.3.68-.68v-88.55c0-.66.84-.93,1.22-.4l6.02,8.34,42.77,59.28c.13.18.33.28.55.28h7.96c.22,0,.42-.1.55-.28l42.77-59.28,6.02-8.34c.38-.53,1.22-.26,1.22.4v88.55c0,.37.3.68.68.68h13.1c.37,0,.68-.3.68-.68v-116.32c0-.37-.3-.68-.68-.68h-11.97Z"/>
        </g>
        <g>
          <rect x="690.18" y="360.05" width="121.76" height="16.25" rx=".68" ry=".68"/>
          <rect x="690.18" y="461.47" width="121.76" height="16.26" rx=".68" ry=".68"/>
          <path d="M794.82,411.91l-14.9,14.9c-.13.13-.3.2-.48.2h-88.58c-.37,0-.68-.3-.68-.68v-14.9c0-.37.3-.68.68-.68h103.48c.6,0,.9.73.48,1.15Z"/>
        </g>
      </g>
    </g>
  </g>
</svg>